<?xml version="1.0" encoding="UTF-8" standalone="no"?>
<!-- Created with Inkscape (http://www.inkscape.org/) -->

<svg
   xmlns:dc="http://purl.org/dc/elements/1.1/"
   xmlns:cc="http://creativecommons.org/ns#"
   xmlns:rdf="http://www.w3.org/1999/02/22-rdf-syntax-ns#"
   xmlns:svg="http://www.w3.org/2000/svg"
   xmlns="http://www.w3.org/2000/svg"
   xmlns:xlink="http://www.w3.org/1999/xlink"
   xmlns:sodipodi="http://sodipodi.sourceforge.net/DTD/sodipodi-0.dtd"
   xmlns:inkscape="http://www.inkscape.org/namespaces/inkscape"
   width="320"
   height="480"
   id="svg2"
   version="1.1"
   inkscape:version="0.48.3.1 r9886"
   inkscape:export-filename="/home/avik/Programs/money-run/screens.png"
   inkscape:export-xdpi="90"
   inkscape:export-ydpi="90"
   sodipodi:docname="screens.svg">
  <defs
     id="defs4">
    <linearGradient
       id="linearGradient16733">
      <stop
         style="stop-color:#79c7db;stop-opacity:1;"
         offset="0"
         id="stop16735" />
      <stop
         style="stop-color:#d4edf3;stop-opacity:1;"
         offset="1"
         id="stop16737" />
    </linearGradient>
    <filter
       inkscape:collect="always"
       id="filter3824"
       x="-0.077886218"
       width="1.1557724"
       y="-0.26127229"
       height="1.5225446">
      <feGaussianBlur
         inkscape:collect="always"
         stdDeviation="11.116324"
         id="feGaussianBlur3826" />
    </filter>
    <filter
       inkscape:collect="always"
       id="filter3850"
       x="-0.082013672"
       width="1.1640273"
       y="-0.22353474"
       height="1.4470695">
      <feGaussianBlur
         inkscape:collect="always"
         stdDeviation="10.935156"
         id="feGaussianBlur3852" />
    </filter>
    <filter
       inkscape:collect="always"
       id="filter3869"
       x="-0.082013681"
       width="1.1640274"
       y="-0.22353467"
       height="1.4470693">
      <feGaussianBlur
         inkscape:collect="always"
         stdDeviation="10.935158"
         id="feGaussianBlur3871" />
    </filter>
    <linearGradient
       inkscape:collect="always"
       xlink:href="#linearGradient16733"
       id="linearGradient16739"
       x1="160"
       y1="572.36224"
       x2="162.00003"
       y2="655.36224"
       gradientUnits="userSpaceOnUse" />
  </defs>
  <sodipodi:namedview
     id="base"
     pagecolor="#ffffff"
     bordercolor="#666666"
     borderopacity="1.0"
     inkscape:pageopacity="0.0"
     inkscape:pageshadow="2"
     inkscape:zoom="1"
     inkscape:cx="261.09144"
     inkscape:cy="458.19588"
     inkscape:document-units="px"
     inkscape:current-layer="g3873"
     showgrid="false"
     showguides="true"
     inkscape:guide-bbox="true"
     inkscape:window-width="1920"
     inkscape:window-height="1056"
     inkscape:window-x="1024"
     inkscape:window-y="24"
     inkscape:window-maximized="1" />
  <metadata
     id="metadata7">
    <rdf:RDF>
      <cc:Work
         rdf:about="">
        <dc:format>image/svg+xml</dc:format>
        <dc:type
           rdf:resource="http://purl.org/dc/dcmitype/StillImage" />
        <dc:title></dc:title>
      </cc:Work>
    </rdf:RDF>
  </metadata>
  <g
     inkscape:label="Layer 1"
     inkscape:groupmode="layer"
     id="layer1"
     transform="translate(0,-572.36218)">
    <g
       id="g3882">
      <rect
         style="fill:#e3dbdb;fill-opacity:1;stroke:none"
         id="rect3007"
         width="320.00003"
         height="240"
         x="3.1824931e-07"
         y="812.36218" />
      <path
         style="opacity:1;fill:#ffffff;fill-opacity:1;stroke:none"
         d="m 32.173359,324.61328 5.3033,-6.71751 5.656855,-1.59099 6.894291,0 4.772971,-0.17678 3.889087,2.12132 2.65165,3.71231 2.298097,-0.7071 6.363961,-4.94975 8.485282,0.17678 6.187184,-0.17678 3.889087,3.53553 4.065864,-3.88908 14.495692,0.53033 2.82842,1.76776 6.8943,-2.47487 8.48528,2.2981 7.07106,7.42462 6.01041,-7.6014 10.78338,-2.2981 7.07107,3.88909 1.76777,6.54074 -1.06066,19.09188 -33.58758,-1.06066 -4.77297,-4.41942 -4.59619,7.24785 -7.6014,-6.89429 -9.192387,6.36396 -36.769553,-0.88389 -3.005204,11.49049 c -7.490743,6.96985 -14.118035,4.87347 -20.682873,2.12132 -4.770625,-3.25316 -3.507285,-7.71311 -3.889088,-11.84404 l -2.12132,-17.50089"
         id="path3893"
         inkscape:connector-curvature="0"
         transform="translate(0,572.36218)"
         sodipodi:nodetypes="ccccccccccccccccccccccccccccccccc" />
      <path
         style="fill:#ffffff;fill-opacity:1;stroke:none"
         d="m 177.30703,325.85072 6.54073,-7.95495 9.01561,-1.94454 9.72272,4.41941 2.65165,3.00521 1.94455,-6.01041 6.0104,-1.41421 5.12653,1.41421 1.94454,4.59619 0.17678,5.30331 2.82843,1.41421 1.94454,-2.2981 0.17678,-7.6014 4.41941,-3.53553 4.41942,2.65165 1.06066,5.12652 8.13173,-6.89429 10.6066,0.17678 6.18719,4.41942 4.77297,-4.94975 4.41941,1.06066 8.13173,-0.88388 7.42462,4.06586 3.53554,5.3033 0,13.08148 -11.13693,2.29809 -4.24265,3.00521 -10.78337,3.88909 -54.44723,-3.00521 -15.37957,1.41421 -15.73312,-8.66205"
         id="path3895"
         inkscape:connector-curvature="0"
         transform="translate(0,572.36218)" />
      <text
         sodipodi:linespacing="125%"
         id="text2985"
         y="915.31714"
         x="29.976845"
         style="font-size:53.5377655px;font-style:normal;font-variant:normal;font-weight:normal;font-stretch:normal;line-height:125%;letter-spacing:0px;word-spacing:0px;fill:#000000;fill-opacity:1;stroke:none;font-family:Billo;-inkscape-font-specification:Billo"
         xml:space="preserve"><tspan
           id="tspan2989"
           y="915.31714"
           x="29.976845"
           sodipodi:role="line"
           style="fill:#800000">GAME OVER</tspan></text>
      <text
         sodipodi:linespacing="125%"
         id="text2993"
         y="968.75299"
         x="30.511385"
         style="font-size:32.2450676px;font-style:normal;font-variant:normal;font-weight:normal;font-stretch:normal;line-height:125%;letter-spacing:0px;word-spacing:0px;fill:#000000;fill-opacity:1;stroke:none;font-family:Billo;-inkscape-font-specification:Billo"
         xml:space="preserve"><tspan
           y="968.75299"
           x="30.511385"
           id="tspan2995"
           sodipodi:role="line"
           style="fill:#800000">refresh to retry</tspan></text>
    </g>
    <g
       id="g3873">
      <rect
         y="572.36224"
         x="-1.9073486e-06"
         height="240"
         width="320.00003"
         id="rect3777"
         style="fill:url(#linearGradient16739);fill-opacity:1;stroke:none" />
      <path
         inkscape:connector-curvature="0"
         style="fill:#000000;fill-opacity:1;stroke:none;filter:url(#filter3869);opacity:0.2"
         d="m 194.5,621.51848 c 14.59235,0 27.62512,6.66245 36.25,17.09374 4.99124,-2.32986 10.53451,-3.65624 16.40625,-3.65624 6.80227,0 13.21864,1.77489 18.78125,4.84374 8.05561,-6.96089 18.54931,-11.1875 30.03125,-11.1875 8.81574,0 17.0394,2.47691 24.03125,6.78126 l 0,78.34374 c -6.99185,4.29942 -15.21551,6.78125 -24.03125,6.78125 -11.96283,0 -22.85412,-4.57268 -31.03125,-12.0625 -5.32554,2.73976 -11.38005,4.28125 -17.78125,4.28125 -8.67006,0 -16.65795,-2.82856 -23.125,-7.625 -8.07473,6.53098 -18.33702,10.46876 -29.53125,10.46876 -18.04466,0 -33.70977,-10.17847 -41.59375,-25.09376 -1.54593,0.2255 -3.11027,0.34375 -4.71874,0.34375 -1.52224,0 -3.03342,-0.11015 -4.50001,-0.3125 -4.2412,19.9816 -22.0045,34.96876 -43.25,34.96876 -20.85187,0 -38.318401,-14.4485 -42.96875,-33.87501 -1.01823,0.37888 -2.06194,0.69075 -3.125001,0.96875 -3.458079,26.14361 -25.81784,46.34376 -52.906249,46.34376 -0.48163076,0 -0.95894066,-0.0186 -1.43750037298998,-0.0313 l 0,-106.71875 C 0.47855934,632.16205 0.95586924,632.14343 1.4375,632.14343 c 7.8318393,0 15.26802,1.6892 21.968749,4.71874 5.89,-5.56677 13.849691,-8.96874 22.593751,-8.96874 12.519679,0 23.38376,7.01546 28.9375,17.3125 7.206199,-5.10217 15.998594,-8.125 25.5,-8.125 7.089,0 13.78097,1.68959 19.71874,4.65625 5.66455,-9.56062 16.11298,-15.96875 28.03127,-15.96875 6.59939,0 12.71578,1.9664 17.84374,5.34374 7.89953,-6.01237 17.77538,-9.59374 28.46875,-9.59374 z"
         id="path3867" />
      <path
         id="path3846"
         d="m 194.5,621.51848 c 14.59235,0 27.62512,6.66245 36.25,17.09374 4.99124,-2.32986 10.53451,-3.65624 16.40625,-3.65624 6.80227,0 13.21864,1.77489 18.78125,4.84374 8.05561,-6.96089 18.54931,-11.1875 30.03125,-11.1875 8.81574,0 17.0394,2.47691 24.03125,6.78126 l 0,78.34374 c -6.99185,4.29942 -15.21551,6.78125 -24.03125,6.78125 -11.96283,0 -22.85412,-4.57268 -31.03125,-12.0625 -5.32554,2.73976 -11.38005,4.28125 -17.78125,4.28125 -8.67006,0 -16.65795,-2.82856 -23.125,-7.625 -8.07473,6.53098 -18.33702,10.46876 -29.53125,10.46876 -18.04466,0 -33.70977,-10.17847 -41.59375,-25.09376 -1.54593,0.2255 -3.11027,0.34375 -4.71874,0.34375 -1.52224,0 -3.03342,-0.11015 -4.50001,-0.3125 -4.2412,19.9816 -22.0045,34.96876 -43.25,34.96876 -20.85187,0 -38.318401,-14.4485 -42.96875,-33.87501 -1.01823,0.37888 -2.06194,0.69075 -3.125001,0.96875 -3.458079,26.14361 -25.81784,46.34376 -52.906249,46.34376 -0.48163076,0 -0.95894066,-0.0186 -1.43750037298998,-0.0313 l 0,-106.71875 C 0.47855934,632.16205 0.95586924,632.14343 1.4375,632.14343 c 7.8318393,0 15.26802,1.6892 21.968749,4.71874 5.89,-5.56677 13.849691,-8.96874 22.593751,-8.96874 12.519679,0 23.38376,7.01546 28.9375,17.3125 7.206199,-5.10217 15.998594,-8.125 25.5,-8.125 7.089,0 13.78097,1.68959 19.71874,4.65625 5.66455,-9.56062 16.11298,-15.96875 28.03127,-15.96875 6.59939,0 12.71578,1.9664 17.84374,5.34374 7.89953,-6.01237 17.77538,-9.59374 28.46875,-9.59374 z"
         style="fill:#e6e6e6;fill-opacity:1;stroke:none"
         inkscape:connector-curvature="0" />
      <path
         id="path3848"
         d="m 125.5,641.51843 c -14.59236,0 -27.625129,6.66246 -36.25,17.09375 -4.991249,-2.32986 -10.53451,-3.65625 -16.40625,-3.65625 -6.802277,0 -13.218641,1.7749 -18.78125,4.84375 -8.055613,-6.96089 -18.549303,-11.1875 -30.03125,-11.1875 -8.815734,0 -17.0393944,2.47691 -24.03125037299,6.78125 l 0,78.34375 C 6.9918556,738.0366 15.215516,740.51843 24.03125,740.51843 c 11.962829,0 22.854125,-4.57269 31.03125,-12.0625 5.325543,2.73976 11.380049,4.28125 17.78125,4.28125 8.670059,0 16.657943,-2.82856 23.125,-7.625 8.07473,6.53098 18.33701,10.46875 29.53125,10.46875 18.04466,0 33.70977,-10.17847 41.59375,-25.09375 1.54593,0.22549 3.11027,0.34375 4.71875,0.34375 1.52223,0 3.03341,-0.11016 4.5,-0.3125 4.2412,19.9816 22.00449,34.96875 43.25,34.96875 20.85187,0 38.3184,-14.44849 42.96875,-33.875 1.01823,0.37888 2.06194,0.69075 3.125,0.96875 3.45808,26.14361 25.81784,46.34375 52.90625,46.34375 0.48163,0 0.95894,-0.0186 1.4375,-0.0312 l 0,-106.7188 c -0.47856,-0.0127 -0.95587,-0.0312 -1.4375,-0.0312 -7.83184,0 -15.26802,1.6892 -21.96875,4.71875 -5.89,-5.56678 -13.84969,-8.96875 -22.59375,-8.96875 -12.51968,0 -23.38376,7.01547 -28.9375,17.3125 -7.2062,-5.10216 -15.9986,-8.125 -25.5,-8.125 -7.08901,0 -13.78097,1.6896 -19.71875,4.65625 -5.66454,-9.56061 -16.11297,-15.96875 -28.03125,-15.96875 -6.59941,0 -12.71579,1.9664 -17.84375,5.34375 -7.89953,-6.01238 -17.77538,-9.59375 -28.46875,-9.59375 z"
         style="opacity:0.1;fill:#000000;fill-opacity:1;stroke:none;filter:url(#filter3850)"
         inkscape:connector-curvature="0" />
      <path
         style="fill:#f2f2f2;fill-opacity:1;stroke:none"
         d="m 125.5,641.51843 c -14.59236,0 -27.625129,6.66246 -36.25,17.09375 -4.991249,-2.32986 -10.53451,-3.65625 -16.40625,-3.65625 -6.802277,0 -13.218641,1.7749 -18.78125,4.84375 -8.055613,-6.96089 -18.549303,-11.1875 -30.03125,-11.1875 -8.815734,0 -17.0393944,2.47691 -24.03125037299,6.78125 l 0,78.34375 C 6.9918556,738.0366 15.215516,740.51843 24.03125,740.51843 c 11.962829,0 22.854125,-4.57269 31.03125,-12.0625 5.325543,2.73976 11.380049,4.28125 17.78125,4.28125 8.670059,0 16.657943,-2.82856 23.125,-7.625 8.07473,6.53098 18.33701,10.46875 29.53125,10.46875 18.04466,0 33.70977,-10.17847 41.59375,-25.09375 1.54593,0.22549 3.11027,0.34375 4.71875,0.34375 1.52223,0 3.03341,-0.11016 4.5,-0.3125 4.2412,19.9816 22.00449,34.96875 43.25,34.96875 20.85187,0 38.3184,-14.44849 42.96875,-33.875 1.01823,0.37888 2.06194,0.69075 3.125,0.96875 3.45808,26.14361 25.81784,46.34375 52.90625,46.34375 0.48163,0 0.95894,-0.0186 1.4375,-0.0312 l 0,-106.7188 c -0.47856,-0.0127 -0.95587,-0.0312 -1.4375,-0.0312 -7.83184,0 -15.26802,1.6892 -21.96875,4.71875 -5.89,-5.56678 -13.84969,-8.96875 -22.59375,-8.96875 -12.51968,0 -23.38376,7.01547 -28.9375,17.3125 -7.2062,-5.10216 -15.9986,-8.125 -25.5,-8.125 -7.08901,0 -13.78097,1.6896 -19.71875,4.65625 -5.66454,-9.56061 -16.11297,-15.96875 -28.03125,-15.96875 -6.59941,0 -12.71579,1.9664 -17.84375,5.34375 -7.89953,-6.01238 -17.77538,-9.59375 -28.46875,-9.59375 z"
         id="path3795"
         inkscape:connector-curvature="0" />
      <path
         style="opacity:0.3;fill:#000000;fill-opacity:1;stroke:none;filter:url(#filter3824)"
         d="m 224.53125,681.51843 c -10.69337,0 -20.56922,3.58138 -28.46875,9.59375 -5.12797,-3.37734 -11.24434,-5.34375 -17.84375,-5.34375 -11.91828,0 -22.36671,6.40813 -28.03125,15.96875 -5.93778,-2.96666 -12.62974,-4.65625 -19.71875,-4.65625 -9.5014,0 -18.29381,3.02284 -25.5,8.125 -5.553749,-10.29703 -16.417825,-17.3125 -28.9375,-17.3125 -8.74406,0 -16.70375,3.40197 -22.59375,8.96875 -6.700729,-3.02955 -14.136911,-4.71875 -21.96875,-4.71875 -11.768741,0 -22.6460349,3.80106 -31.46875037299,10.25 l 0,86.25 C 8.8232902,795.09978 19.698573,798.92468 31.46875,798.92468 c 27.088409,0 49.448175,-20.20014 52.90625,-46.34375 1.063069,-0.278 2.106772,-0.58987 3.125,-0.96875 4.650349,19.42651 22.11688,33.875 42.96875,33.875 21.24551,0 39.00881,-14.98715 43.25,-34.96875 1.46659,0.20235 2.97777,0.3125 4.5,0.3125 1.60848,0 3.17282,-0.11826 4.71875,-0.34375 7.88398,14.91528 23.54908,25.09375 41.59375,25.09375 11.19424,0 21.45652,-3.93777 29.53125,-10.46875 6.46706,4.79644 14.45495,7.625 23.125,7.625 6.4012,0 12.45571,-1.54149 17.78125,-4.28125 6.78447,6.21422 15.44818,10.40381 25.03125,11.65625 l 0,-91.09375 c -9.12075,1.1943 -17.40368,5.05434 -24.03125,10.78125 -5.56261,-3.06885 -11.97896,-4.84375 -18.78125,-4.84375 -5.87173,0 -11.415,1.32638 -16.40625,3.65625 -8.62487,-10.43129 -21.65764,-17.09375 -36.25,-17.09375 z"
         id="path3814"
         inkscape:connector-curvature="0" />
      <path
         style="fill:#ffffff;fill-opacity:1;stroke:none"
         d="m 224.53125,681.51843 c -10.69337,0 -20.56922,3.58138 -28.46875,9.59375 -5.12797,-3.37734 -11.24434,-5.34375 -17.84375,-5.34375 -11.91828,0 -22.36671,6.40813 -28.03125,15.96875 -5.93778,-2.96666 -12.62974,-4.65625 -19.71875,-4.65625 -9.5014,0 -18.29381,3.02284 -25.5,8.125 -5.553749,-10.29703 -16.417825,-17.3125 -28.9375,-17.3125 -8.74406,0 -16.70375,3.40197 -22.59375,8.96875 -6.700729,-3.02955 -14.136911,-4.71875 -21.96875,-4.71875 -11.776624,0 -22.648925,3.82347 -31.46875037299,10.28125 l 0,109.9375 L 320,812.36218 320,689.01843 c -9.12075,1.1943 -17.40368,5.05434 -24.03125,10.78125 -5.56261,-3.06885 -11.97896,-4.84375 -18.78125,-4.84375 -5.87173,0 -11.415,1.32638 -16.40625,3.65625 -8.62487,-10.43129 -21.65764,-17.09375 -36.25,-17.09375 z"
         id="path3810"
         inkscape:connector-curvature="0" />
    </g>
  </g>
</svg>
